<svg width="120" height="96" viewBox="0 0 120 96" fill="none" xmlns="http://www.w3.org/2000/svg">
<path d="M0 72.4188H5.04391L14.2964 87.8819H14.5535L14.2964 83.4362V72.4188H18.6014V95.4846H14.0394L4.27287 79.1517H4.01585L4.27287 83.5973V95.4846H0V72.4188Z" fill="white"/>
<path d="M32.7659 93.4228H32.5088C32.0162 94.2175 31.3523 94.851 30.517 95.3235C29.6817 95.7745 28.7286 96 27.6577 96C25.6658 96 24.1773 95.3879 23.1921 94.1638C22.2283 92.9396 21.7464 91.3074 21.7464 89.2671V79.6993H25.955V88.7517C25.955 89.8899 26.2013 90.7383 26.6939 91.2966C27.2079 91.8336 27.9468 92.102 28.9106 92.102C29.4889 92.102 29.9922 91.9839 30.4206 91.7477C30.8704 91.4899 31.2452 91.157 31.545 90.749C31.8663 90.3195 32.1019 89.8255 32.2518 89.2671C32.4232 88.6872 32.5088 88.0752 32.5088 87.4309V79.6993H36.7175V95.4846H32.7659V93.4228Z" fill="white"/>
<path d="M43.7603 81.7611H44.0173C44.5099 80.9664 45.1738 80.3436 46.0091 79.8926C46.8444 79.4201 47.7975 79.1839 48.8684 79.1839C49.8536 79.1839 50.7211 79.345 51.4707 79.6671C52.2203 79.9893 52.8307 80.451 53.3019 81.0524C53.7945 81.6322 54.1586 82.3409 54.3942 83.1785C54.6513 83.9946 54.7798 84.9074 54.7798 85.9168V95.4846H50.5711V86.4322C50.5711 85.294 50.3141 84.4564 49.8001 83.9195C49.3075 83.3611 48.5793 83.0819 47.6155 83.0819C47.0372 83.0819 46.5232 83.2107 46.0734 83.4685C45.645 83.7047 45.2702 84.0376 44.949 84.4671C44.6491 84.8752 44.4135 85.3691 44.2422 85.949C44.0922 86.5074 44.0173 87.1087 44.0173 87.753V95.4846H39.8087V79.6993H43.7603V81.7611Z" fill="white"/>
<path d="M58.6616 83.3074H55.8987V79.6993H58.6616V74.8671H62.8702V79.6993H66.7254V83.3074H62.8702V89.4282C62.8702 89.7933 62.9023 90.1369 62.9666 90.4591C63.0523 90.7597 63.2022 91.0175 63.4164 91.2322C63.7162 91.5758 64.1446 91.7477 64.7014 91.7477C65.0655 91.7477 65.3547 91.7154 65.5689 91.651C65.783 91.5651 65.9865 91.4577 66.1793 91.3289L67.368 95.0336C66.8754 95.2698 66.3399 95.4416 65.7616 95.549C65.2048 95.6779 64.5836 95.7423 63.8983 95.7423C63.1058 95.7423 62.3883 95.6242 61.7458 95.3879C61.1246 95.1302 60.5999 94.7866 60.1716 94.357C59.1649 93.3906 58.6616 92.0161 58.6616 90.2336V83.3074Z" fill="white"/>
<path d="M71.8095 77.4121C71.4454 77.4121 71.092 77.3477 70.7493 77.2188C70.428 77.0685 70.1389 76.8752 69.8819 76.6389C69.6463 76.3812 69.4535 76.0913 69.3036 75.7691C69.1751 75.447 69.1108 75.0926 69.1108 74.706C69.1108 74.3195 69.1751 73.9651 69.3036 73.643C69.4535 73.3208 69.6463 73.0416 69.8819 72.8054C70.1389 72.5476 70.428 72.3544 70.7493 72.2255C71.092 72.0752 71.4454 72 71.8095 72C72.5591 72 73.2017 72.2685 73.7371 72.8054C74.2726 73.3208 74.5403 73.9544 74.5403 74.706C74.5403 75.4577 74.2726 76.102 73.7371 76.6389C73.2017 77.1544 72.5591 77.4121 71.8095 77.4121ZM69.7213 95.4846V79.6993H73.9299V95.4846H69.7213Z" fill="white"/>
<path d="M88.1553 93.4228H87.8983C87.4056 94.2175 86.7417 94.851 85.9064 95.3235C85.0711 95.7745 84.118 96 83.0471 96C81.0553 96 79.5667 95.3879 78.5815 94.1638C77.6177 92.9396 77.1358 91.3074 77.1358 89.2671V79.6993H81.3444V88.7517C81.3444 89.8899 81.5907 90.7383 82.0833 91.2966C82.5973 91.8336 83.3363 92.102 84.3001 92.102C84.8783 92.102 85.3817 91.9839 85.81 91.7477C86.2598 91.4899 86.6346 91.157 86.9345 90.749C87.2557 90.3195 87.4913 89.8255 87.6413 89.2671C87.8126 88.6872 87.8983 88.0752 87.8983 87.4309V79.6993H92.1069V95.4846H88.1553V93.4228Z" fill="white"/>
<path d="M95.1981 79.6993H99.1497V81.7611H99.4067C99.8993 80.9879 100.563 80.3651 101.399 79.8926C102.255 79.4201 103.198 79.1839 104.226 79.1839C105.425 79.1839 106.432 79.4631 107.246 80.0215C108.06 80.5799 108.638 81.2671 108.98 82.0832C109.473 81.2886 110.169 80.6121 111.069 80.0537C111.968 79.4738 113.061 79.1839 114.346 79.1839C115.309 79.1839 116.145 79.345 116.852 79.6671C117.558 79.9678 118.137 80.3973 118.586 80.9557C119.058 81.5141 119.411 82.1906 119.647 82.9852C119.882 83.7584 120 84.6067 120 85.5302V95.4846H115.791V86.3034C115.791 84.1557 114.913 83.0819 113.157 83.0819C112.6 83.0819 112.108 83.2107 111.679 83.4685C111.251 83.7047 110.887 84.0376 110.587 84.4671C110.308 84.8752 110.084 85.3691 109.912 85.949C109.762 86.5289 109.687 87.1517 109.687 87.8175V95.4846H105.479V86.3034C105.479 84.1557 104.558 83.0819 102.716 83.0819C102.18 83.0819 101.709 83.2107 101.302 83.4685C100.895 83.7047 100.553 84.0376 100.274 84.4671C99.9957 84.8752 99.7815 85.3691 99.6316 85.949C99.4817 86.5289 99.4067 87.1517 99.4067 87.8175V95.4846H95.1981V79.6993Z" fill="white"/>
<path d="M67 12H72V17H67V12Z" fill="#8A96E5"/>
<path d="M48 12H53V17H48V12Z" fill="#8A96E5"/>
<path d="M48 31H53V36H48V31Z" fill="#8A96E5"/>
<path d="M67 31H72V36H67V31Z" fill="#8A96E5"/>
<path d="M72 12C72 8.8174 70.7357 5.76516 68.4853 3.51472C66.2348 1.26428 63.1826 2.40279e-07 60 0C56.8174 -2.40279e-07 53.7652 1.26428 51.5147 3.51472C49.2643 5.76515 48 8.8174 48 12L52.9958 12C52.9958 10.1424 53.7337 8.36081 55.0473 7.04727C56.3608 5.73372 58.1424 4.99578 60 4.99578C61.8576 4.99578 63.6392 5.73372 64.9527 7.04727C66.2663 8.36082 67.0042 10.1424 67.0042 12H72Z" fill="#8A96E5"/>
<path d="M72 36C75.1826 36 78.2348 34.7357 80.4853 32.4853C82.7357 30.2348 84 27.1826 84 24C84 20.8174 82.7357 17.7652 80.4853 15.5147C78.2348 13.2643 75.1826 12 72 12V16.9956C73.8577 16.9956 75.6393 17.7336 76.9529 19.0471C78.2664 20.3607 79.0044 22.1423 79.0044 24C79.0044 25.8577 78.2664 27.6393 76.9529 28.9529C75.6393 30.2664 73.8577 31.0044 72 31.0044V36Z" fill="#8A96E5"/>
<path d="M48 12C44.8174 12 41.7652 13.2643 39.5147 15.5147C37.2643 17.7652 36 20.8174 36 24C36 27.1826 37.2643 30.2348 39.5147 32.4853C41.7652 34.7357 44.8174 36 48 36V31.0044C46.1423 31.0044 44.3607 30.2664 43.0471 28.9529C41.7336 27.6393 40.9956 25.8577 40.9956 24C40.9956 22.1423 41.7336 20.3607 43.0471 19.0471C44.3607 17.7336 46.1423 16.9956 48 16.9956V12Z" fill="#8A96E5"/>
<path d="M48 36C48 39.1826 49.2643 42.2348 51.5147 44.4853C53.7652 46.7357 56.8174 48 60 48C63.1826 48 66.2348 46.7357 68.4853 44.4853C70.7357 42.2348 72 39.1826 72 36H67.0044C67.0044 37.8577 66.2664 39.6393 64.9529 40.9529C63.6393 42.2664 61.8577 43.0044 60 43.0044C58.1423 43.0044 56.3607 42.2664 55.0471 40.9529C53.7336 39.6393 52.9956 37.8577 52.9956 36H48Z" fill="#8A96E5"/>
<path d="M72 24C72 30.6274 66.6274 36 60 36C53.3726 36 48 30.6274 48 24C48 17.3726 53.3726 12 60 12C66.6274 12 72 17.3726 72 24ZM54.24 24C54.24 27.1812 56.8188 29.76 60 29.76C63.1812 29.76 65.76 27.1812 65.76 24C65.76 20.8188 63.1812 18.24 60 18.24C56.8188 18.24 54.24 20.8188 54.24 24Z" fill="white"/>
</svg>
