<svg id="eo1jFuyLr9h1" xmlns="http://www.w3.org/2000/svg" xmlns:xlink="http://www.w3.org/1999/xlink" viewBox="0 0 24 24" shape-rendering="geometricPrecision" text-rendering="geometricPrecision"><g><path d="M10,13h-7c-.26522,0-.51957.1054-.70711.2929s-.29289.4419-.29289.7071v7c0,.2652.10536.5196.29289.7071s.44189.2929.70711.2929h7c.2652,0,.5196-.1054.7071-.2929s.2929-.4419.2929-.7071v-7c0-.2652-.1054-.5196-.2929-.7071s-.4419-.2929-.7071-.2929ZM9,20h-5v-5h5v5ZM21,2h-7c-.2652,0-.5196.10536-.7071.29289s-.2929.44189-.2929.70711v7c0,.2652.1054.5196.2929.7071s.4419.2929.7071.2929h7c.2652,0,.5196-.1054.7071-.2929s.2929-.4419.2929-.7071v-7c0-.26522-.1054-.51957-.2929-.70711s-.4419-.29289-.7071-.29289v0ZM20,9h-5v-5h5v5Zm1,4h-7c-.2652,0-.5196.1054-.7071.2929s-.2929.4419-.2929.7071v7c0,.2652.1054.5196.2929.7071s.4419.2929.7071.2929h7c.2652,0,.5196-.1054.7071-.2929s.2929-.4419.2929-.7071v-7c0-.2652-.1054-.5196-.2929-.7071s-.4419-.2929-.7071-.2929Zm-1,7h-5v-5h5v5ZM10,2h-7c-.26522,0-.51957.10536-.70711.29289s-.29289.44189-.29289.70711v7c0,.2652.10536.5196.29289.7071s.44189.2929.70711.2929h7c.2652,0,.5196-.1054.7071-.2929s.2929-.4419.2929-.7071v-7c0-.26522-.1054-.51957-.2929-.70711s-.4419-.29289-.7071-.29289v0ZM9,9h-5v-5h5v5Z" fill="#acafc3"/></g></svg>
